<?xml version="1.0" encoding="UTF-8" standalone="no"?>
<!-- Created with Inkscape (http://www.inkscape.org/) -->

<svg
   width="300"
   height="200"
   viewBox="0 0 79.374998 52.916666"
   version="1.1"
   id="svg1"
   inkscape:version="1.3 (0e150ed, 2023-07-21)"
   sodipodi:docname="mvpdevs.svg.2023_07_31_07_49_14.0.svg"
   inkscape:export-filename="mvpdevs.png"
   inkscape:export-xdpi="96"
   inkscape:export-ydpi="96"
   xmlns:inkscape="http://www.inkscape.org/namespaces/inkscape"
   xmlns:sodipodi="http://sodipodi.sourceforge.net/DTD/sodipodi-0.dtd"
   xmlns="http://www.w3.org/2000/svg"
   xmlns:svg="http://www.w3.org/2000/svg">
  <sodipodi:namedview
     id="namedview1"
     pagecolor="#ffffff"
     bordercolor="#000000"
     borderopacity="0.25"
     inkscape:showpageshadow="2"
     inkscape:pageopacity="0.0"
     inkscape:pagecheckerboard="0"
     inkscape:deskcolor="#d1d1d1"
     inkscape:document-units="px"
     inkscape:zoom="1.7567621"
     inkscape:cx="153.69184"
     inkscape:cy="118.68425"
     inkscape:window-width="1366"
     inkscape:window-height="699"
     inkscape:window-x="0"
     inkscape:window-y="0"
     inkscape:window-maximized="1"
     inkscape:current-layer="layer1"
     inkscape:export-bgcolor="#ffffffff" />
  <defs
     id="defs1">
    <inkscape:path-effect
       effect="fillet_chamfer"
       id="path-effect32"
       is_visible="true"
       lpeversion="1"
       nodesatellites_param="F,0,0,1,0,1.1643127,0,1 @ F,0,0,1,0,1.3964207,0,1 @ F,0,0,1,0,1.1551917,0,1 @ F,0,0,1,0,0.83213956,0,1 @ F,0,0,1,0,0.56993881,0,1 @ F,0,0,1,0,0.30448983,0,1"
       radius="0"
       unit="px"
       method="auto"
       mode="F"
       chamfer_steps="1"
       flexible="false"
       use_knot_distance="true"
       apply_no_radius="true"
       apply_with_radius="true"
       only_selected="false"
       hide_knots="false" />
    <inkscape:path-effect
       effect="fillet_chamfer"
       id="path-effect28"
       is_visible="true"
       lpeversion="1"
       nodesatellites_param="F,0,0,1,0,0,0,1 @ F,0,0,1,0,1.1479779,0,1 @ F,0,0,1,0,0,0,1"
       radius="0"
       unit="px"
       method="auto"
       mode="F"
       chamfer_steps="1"
       flexible="false"
       use_knot_distance="true"
       apply_no_radius="true"
       apply_with_radius="true"
       only_selected="false"
       hide_knots="false" />
    <inkscape:path-effect
       effect="fillet_chamfer"
       id="path-effect25"
       is_visible="true"
       lpeversion="1"
       nodesatellites_param="F,0,0,1,0,0,0,1 @ F,0,0,1,0,0,0,1"
       radius="0"
       unit="px"
       method="auto"
       mode="F"
       chamfer_steps="1"
       flexible="false"
       use_knot_distance="true"
       apply_no_radius="true"
       apply_with_radius="true"
       only_selected="false"
       hide_knots="false" />
    <inkscape:path-effect
       effect="fillet_chamfer"
       id="path-effect24"
       is_visible="true"
       lpeversion="1"
       nodesatellites_param="F,0,0,1,0,0,0,1 @ F,0,0,1,0,0,0,1"
       radius="0"
       unit="px"
       method="auto"
       mode="F"
       chamfer_steps="1"
       flexible="false"
       use_knot_distance="true"
       apply_no_radius="true"
       apply_with_radius="true"
       only_selected="false"
       hide_knots="false" />
    <inkscape:path-effect
       effect="fillet_chamfer"
       id="path-effect23"
       is_visible="true"
       lpeversion="1"
       nodesatellites_param="F,0,0,1,0,0,0,1 @ F,0,0,1,0,0,0,1"
       radius="0"
       unit="px"
       method="auto"
       mode="F"
       chamfer_steps="1"
       flexible="false"
       use_knot_distance="true"
       apply_no_radius="true"
       apply_with_radius="true"
       only_selected="false"
       hide_knots="false" />
    <inkscape:path-effect
       effect="fillet_chamfer"
       id="path-effect22"
       is_visible="true"
       lpeversion="1"
       nodesatellites_param="F,0,0,1,0,0,0,1 @ F,0,0,1,0,0,0,1"
       radius="0"
       unit="px"
       method="auto"
       mode="F"
       chamfer_steps="1"
       flexible="false"
       use_knot_distance="true"
       apply_no_radius="true"
       apply_with_radius="true"
       only_selected="false"
       hide_knots="false" />
  </defs>
  <g
     inkscape:label="Layer 1"
     inkscape:groupmode="layer"
     id="layer1">
    <g
       id="g4">
      <g
         id="g49"
         transform="matrix(2.2842272,0,0,1.8695748,-250.9646,9.1939222)"
         style="fill:#53f890;fill-opacity:1;stroke:#009237;stroke-opacity:1">
        <g
           id="g40"
           style="fill:#53f890;fill-opacity:1;stroke:#009237;stroke-opacity:1">
          <path
             style="fill:#53f890;fill-opacity:1;stroke:#009237;stroke-width:0.233313px;stroke-linecap:butt;stroke-linejoin:miter;stroke-opacity:1"
             d="m 111.49815,4.8232778 -0.0942,7.9591102 a 1.3799906,1.3799906 45.339059 0 0 1.37989,1.396323 h 11.99797 a 1.1551917,1.1551917 135 0 0 1.15519,-1.155192 l 0,-7.078957 a 0.83213956,0.83213956 45 0 0 -0.83214,-0.8321396 h -5.63679 a 1.3759529,1.3759529 22.500016 0 1 -0.97295,-0.4030078 l -0.88032,-0.880327 a 0.7271837,0.7271837 22.279764 0 0 -0.51979,-0.2129659 l -4.4188,0.033974 a 1.1872691,1.1872691 135.11881 0 0 -1.17806,1.1731826 z"
             id="path29"
             sodipodi:nodetypes="ccccccc"
             inkscape:original-d="M 111.51193,3.6590466 111.38742,14.178711 H 125.937 V 5.1124224 h -7.03887 l -1.49864,-1.4986417 z"
             inkscape:path-effect="#path-effect32" />
          <path
             style="opacity:0.00573593;fill:#53f890;fill-opacity:1;stroke:#009237;stroke-width:0.426922;stroke-dasharray:none;stroke-opacity:1"
             d="m 424.10317,52.34566 c -1.2727,-0.77589 -1.92499,-1.603279 -2.22535,-2.822733 -0.13495,-0.547883 -0.1629,-7.996012 -0.0621,-16.551398 0.1729,-14.677252 0.2143,-15.608436 0.73359,-16.497571 0.30269,-0.518279 0.99408,-1.203009 1.53642,-1.521624 0.92614,-0.544085 1.53552,-0.584725 10.02456,-0.668539 l 9.03848,-0.08924 2.40539,2.303604 c 3.76253,3.603317 2.83985,3.411271 16.42455,3.418606 l 11.57621,0.0063 0.87567,0.736837 0.87569,0.736836 v 14.361867 c 0,15.849926 0.037,15.506399 -1.79266,16.622037 -0.88451,0.539319 -1.60675,0.555579 -24.67649,0.555579 -23.54988,0 -23.7741,-0.0054 -24.73394,-0.590513 z"
             id="path33"
             transform="scale(0.26458333)" />
          <path
             style="opacity:0.00573593;fill:#53f890;fill-opacity:1;stroke:#009237;stroke-width:0.426922;stroke-dasharray:none;stroke-opacity:1"
             d="m 424.10317,52.34566 c -1.2727,-0.77589 -1.92499,-1.603279 -2.22535,-2.822733 -0.13495,-0.547883 -0.1629,-7.996012 -0.0621,-16.551398 0.1729,-14.677252 0.2143,-15.608436 0.73359,-16.497571 0.30269,-0.518279 0.99408,-1.203009 1.53642,-1.521624 0.92614,-0.544085 1.53552,-0.584725 10.02456,-0.668539 l 9.03848,-0.08924 2.40539,2.303604 c 3.76253,3.603317 2.83985,3.411271 16.42455,3.418606 l 11.57621,0.0063 0.87567,0.736837 0.87569,0.736836 v 14.361867 c 0,15.849926 0.037,15.506399 -1.79266,16.622037 -0.88451,0.539319 -1.60675,0.555579 -24.67649,0.555579 -23.54988,0 -23.7741,-0.0054 -24.73394,-0.590513 z"
             id="path34"
             transform="scale(0.26458333)" />
          <path
             style="opacity:0.00573593;fill:#53f890;fill-opacity:1;stroke:#009237;stroke-width:0.426922;stroke-dasharray:none;stroke-opacity:1"
             d="m 424.10317,52.34566 c -1.27363,-0.776454 -1.92557,-1.60405 -2.22361,-2.822733 -0.13399,-0.547883 -0.16113,-7.997401 -0.0603,-16.554485 0.17275,-14.662037 0.21491,-15.612443 0.73185,-16.497572 0.3017,-0.51658 0.99228,-1.199921 1.53462,-1.518536 0.92614,-0.544085 1.53552,-0.584725 10.02456,-0.668539 l 9.03848,-0.08924 2.40539,2.303604 c 3.76361,3.604347 2.83352,3.411272 16.46828,3.418606 l 11.61994,0.0063 0.83195,0.83195 0.83195,0.83195 v 14.266754 c 0,15.745041 0.0361,15.41184 -1.79266,16.526923 -0.88451,0.539319 -1.60675,0.555579 -24.67649,0.555579 -23.54988,0 -23.7741,-0.0054 -24.73394,-0.590513 z"
             id="path35"
             transform="scale(0.26458333)" />
          <path
             style="opacity:0.00573593;fill:#53f890;fill-opacity:1;stroke:#009237;stroke-width:0.426922;stroke-dasharray:none;stroke-opacity:1"
             d="m 425.21783,52.447934 c -0.3893,-0.07487 -1.06363,-0.38949 -1.49852,-0.699159 -1.65499,-1.178455 -1.63792,-1.017451 -1.61438,-15.232828 0.0119,-7.169387 0.11373,-14.543485 0.22635,-16.386886 0.19961,-3.267347 0.22743,-3.374306 1.10617,-4.253042 1.19134,-1.191348 2.22244,-1.306544 11.96414,-1.336662 l 7.76827,-0.02402 2.48494,2.354978 c 1.75875,1.666757 2.85717,2.475005 3.75863,2.765688 0.98754,0.318443 3.87261,0.444769 12.84246,0.562321 10.96817,0.143739 11.6007,0.180524 12.18354,0.708521 l 0.61475,0.556911 -0.0874,14.527659 c -0.0926,15.385473 -0.0925,15.384116 -1.44587,16.157669 -0.49763,0.284433 -5.68013,0.370102 -24.11455,0.398631 -12.91439,0.01999 -23.79922,-0.02492 -24.18851,-0.09979 z"
             id="path36"
             transform="scale(0.26458333)" />
          <path
             style="opacity:0.00573593;fill:#53f890;fill-opacity:1;stroke:#009237;stroke-width:0.426922;stroke-dasharray:none;stroke-opacity:1"
             d="m 425.51118,52.448873 c -0.54103,-0.06854 -1.34344,-0.380786 -1.78314,-0.693879 -1.65472,-1.17827 -1.64661,-1.107113 -1.62371,-14.242896 0.0115,-6.621504 0.11551,-13.997706 0.23103,-16.391559 l 0.21003,-4.352462 0.8817,-0.881702 c 0.78994,-0.789942 1.12875,-0.905302 3.2555,-1.10846 1.3056,-0.124717 5.51168,-0.233937 9.34686,-0.242711 l 6.97306,-0.01595 2.53273,2.307182 c 1.393,1.26895 2.99396,2.51609 3.55768,2.771421 0.88267,0.399793 2.64996,0.477049 12.73074,0.556518 l 11.70579,0.09228 0.76526,0.79875 0.76525,0.79875 -0.11278,14.195157 c -0.062,7.807337 -0.2121,14.477363 -0.3335,14.822285 -0.1214,0.344921 -0.55956,0.857227 -0.97368,1.138458 -0.70836,0.481038 -2.12711,0.513168 -23.94905,0.542384 -12.75785,0.01708 -23.63874,-0.02502 -24.17977,-0.09356 z"
             id="path37"
             transform="scale(0.26458333)" />
          <path
             style="opacity:0.00573593;fill:#53f890;fill-opacity:1;stroke:#009237;stroke-width:0.426922;stroke-dasharray:none;stroke-opacity:1"
             d="m 425.45206,52.11732 c -1.44762,-0.305269 -2.46637,-1.037449 -2.72382,-1.95761 -0.11989,-0.428499 -0.21798,-8.033989 -0.21798,-16.901088 0,-15.716242 0.0143,-16.137809 0.56856,-16.750242 1.36264,-1.505688 1.6385,-1.546718 11.14935,-1.658284 l 8.87176,-0.104069 2.30875,2.159122 c 1.26982,1.187518 2.72078,2.37548 3.22436,2.639916 1.15343,0.60568 6.4627,0.894558 17.13863,0.932516 6.95645,0.02473 7.74811,0.07618 8.35498,0.542922 l 0.67038,0.515601 -0.10881,14.491487 c -0.11258,14.99462 -0.14779,15.427553 -1.2952,15.924368 -0.67027,0.290218 -46.59765,0.448632 -47.94096,0.165361 z"
             id="path38"
             transform="scale(0.26458333)" />
          <path
             style="opacity:0.00573593;fill:#53f890;fill-opacity:1;stroke:#009237;stroke-width:0.426922;stroke-dasharray:none;stroke-opacity:1"
             d="m 427.91794,52.124748 c -3.6502,-0.195152 -4.70079,-0.569764 -5.1389,-1.832385 -0.33296,-0.959589 -0.47356,-20.655884 -0.19445,-27.238586 0.27168,-6.407331 0.37513,-6.791083 2.04423,-7.583123 0.82267,-0.390382 2.40311,-0.490957 9.57126,-0.609094 l 8.58588,-0.141502 2.66981,2.359175 c 1.46839,1.297546 3.11132,2.544529 3.65096,2.771072 0.77313,0.324566 3.47058,0.454401 12.72241,0.612365 11.08099,0.189195 11.77635,0.231675 12.36527,0.755405 l 0.62401,0.554936 -0.18114,14.136144 c -0.10036,7.83184 -0.30283,14.456197 -0.454,14.853804 -0.15006,0.394712 -0.53144,0.856055 -0.8475,1.025207 -0.65727,0.351758 -39.71939,0.641239 -45.41784,0.336582 z"
             id="path39"
             transform="scale(0.26458333)" />
          <path
             style="opacity:0.00573593;fill:#53f890;fill-opacity:1;stroke:#009237;stroke-width:0.426922;stroke-dasharray:none;stroke-opacity:1"
             d="m 426.06794,51.843532 c -1.8536,-0.24114 -2.79221,-0.776571 -3.07017,-1.751376 -0.11159,-0.391345 -0.20289,-7.883822 -0.20289,-16.649949 0,-12.742298 0.0759,-16.071661 0.37867,-16.602891 0.80686,-1.415821 1.78205,-1.564132 11.15148,-1.695957 l 8.684,-0.122182 2.41596,2.200138 c 1.32878,1.210076 2.80019,2.362944 3.26981,2.561929 1.28691,0.545292 4.67577,0.758044 15.22804,0.956018 7.80311,0.146396 9.68257,0.25746 10.09043,0.596277 0.46981,0.390292 0.49239,1.3084 0.36046,14.657648 -0.0774,7.832702 -0.23207,14.520589 -0.34369,14.861973 -0.11162,0.34138 -0.39432,0.694129 -0.62822,0.783885 -0.6399,0.245551 -45.52761,0.439473 -47.33388,0.204487 z"
             id="path40"
             transform="scale(0.26458333)" />
        </g>
        <path
           style="opacity:0.00573593;fill:#53f890;fill-opacity:1;stroke:#009237;stroke-width:0.426922;stroke-dasharray:none;stroke-opacity:1"
           d="m 429.71693,51.802092 c -4.54279,-0.130507 -5.10977,-0.202791 -5.83459,-0.743837 l -0.80285,-0.599285 -0.20744,-8.223767 c -0.25386,-10.064336 0.0897,-24.434806 0.60706,-25.395887 0.72115,-1.339517 1.77019,-1.502105 10.82397,-1.67759 l 8.4327,-0.163447 1.98336,1.783925 c 2.63385,2.369008 4.15572,3.323777 5.65682,3.54888 0.68297,0.102417 6.09803,0.290562 12.03347,0.418099 7.75438,0.166622 10.98058,0.332969 11.46279,0.591036 l 0.67107,0.359149 -0.19536,13.856283 c -0.1079,7.652338 -0.32246,14.316558 -0.47922,14.88429 l -0.28384,1.028005 -2.05661,0.157335 c -2.82658,0.216242 -35.61278,0.354889 -41.81133,0.176811 z"
           id="path41"
           transform="scale(0.26458333)" />
        <path
           style="opacity:0.00573593;fill:#53f890;fill-opacity:1;stroke:#009237;stroke-width:0.426922;stroke-dasharray:none;stroke-opacity:1"
           d="m 426.41258,51.544624 c -3.60396,-0.364437 -3.29455,1.283982 -3.30232,-17.593536 -0.005,-11.644884 0.0856,-16.376672 0.32351,-16.92825 0.53618,-1.243322 1.71289,-1.409044 11.0303,-1.553463 l 8.53844,-0.132344 2.27691,2.036089 c 3.61887,3.2361 3.15065,3.124751 14.47101,3.44145 5.34668,0.149579 10.74584,0.362382 11.99815,0.472894 l 2.27691,0.200933 -0.0529,14.629273 c -0.0422,11.656745 -0.12894,14.702417 -0.42692,14.989251 -0.2924,0.281447 -5.24809,0.391339 -22.71622,0.503734 -12.28823,0.07906 -23.27581,0.04935 -24.41683,-0.06603 z"
           id="path42"
           transform="scale(0.26458333)" />
        <path
           style="opacity:0.00573593;fill:#53f890;fill-opacity:1;stroke:#009237;stroke-width:0.426922;stroke-dasharray:none;stroke-opacity:1"
           d="m 425.23497,51.307779 c -0.37986,-0.07146 -0.98823,-0.324904 -1.35192,-0.563204 l -0.66125,-0.433271 0.0146,-14.838376 c 0.0145,-14.725307 0.15925,-18.399153 0.74812,-18.988014 0.62548,-0.625486 2.71015,-0.821574 10.62185,-0.999115 l 8.11151,-0.182024 2.42722,2.10491 c 3.94373,3.420063 3.10983,3.249362 17.8689,3.657806 6.33486,0.175312 10.2699,0.395814 10.64487,0.596489 l 0.59486,0.318363 -0.21561,13.272717 c -0.11858,7.299994 -0.29802,13.846969 -0.39874,14.548834 -0.17547,1.222747 -0.23074,1.284551 -1.32159,1.477824 -1.22598,0.217215 -45.93546,0.24291 -47.08283,0.02706 z"
           id="path43"
           transform="scale(0.26458333)" />
        <path
           style="opacity:0.00573593;fill:#53f890;fill-opacity:1;stroke:#009237;stroke-width:0.426922;stroke-dasharray:none;stroke-opacity:1"
           d="m 427.57105,51.254918 c -2.47117,-0.128945 -3.30241,-0.276264 -3.67679,-0.651645 -0.44436,-0.44555 -0.48227,-1.807066 -0.46568,-16.725458 0.0202,-18.157101 -0.0631,-17.409704 1.97902,-17.760719 0.598,-0.102789 4.75046,-0.269084 9.2277,-0.369544 l 8.14043,-0.182656 2.248,1.922067 c 2.44361,2.08932 3.69718,2.832438 5.23645,3.104184 0.54788,0.09672 4.77441,0.304268 9.39228,0.461208 4.61787,0.15694 9.72735,0.367828 11.3544,0.468638 l 2.95828,0.183292 -0.20843,14.236191 c -0.11464,7.829905 -0.27075,14.398592 -0.34692,14.597085 -0.0888,0.2315 -0.97272,0.417057 -2.46523,0.517543 -3.39678,0.228691 -39.62187,0.395574 -43.37351,0.199814 z"
           id="path44"
           transform="scale(0.26458333)" />
        <path
           style="opacity:0.00573593;fill:#53f890;fill-opacity:1;stroke:#009237;stroke-width:0.396875;stroke-dasharray:none;stroke-opacity:1"
           d="m 112.60987,3.6316655 4.57062,-0.087953 1.80377,1.4496071 0.67479,0.1714937 1.83849,0.029416 3.93759,-0.076775 0.51801,0.4715341 0.048,0.3953475 0.0162,7.4307071 -0.5133,0.629497 -0.48419,0.08354 -6.68796,0.159433 -5.82401,-0.114427 -0.62391,-0.468298 -0.31828,-0.473887 -0.11737,-4.0220134 0.0582,-4.680042 0.2115,-0.6612655 z"
           id="path45" />
        <path
           style="opacity:0.00573593;fill:#53f890;fill-opacity:1;stroke:#009237;stroke-width:0.426922;stroke-dasharray:none;stroke-opacity:1"
           d="m 466.91013,51.515229 c -0.11468,-0.185554 -7.43758,-0.284614 -21.03989,-0.284614 -20.75439,0 -20.86797,-0.0031 -21.6227,-0.596806 l -0.75872,-0.596808 0.0799,-16.503141 c 0.0773,-15.958999 0.0982,-16.516457 0.63242,-16.906987 0.30386,-0.222115 0.89088,-0.403845 1.30449,-0.403845 0.4136,0 0.83317,-0.08116 0.93236,-0.180354 0.0992,-0.09919 1.39311,-0.155892 2.87537,-0.125994 3.11362,0.0628 5.20371,-0.215559 4.29208,-0.571625 -0.31047,-0.121262 -0.94232,-0.229479 -1.4041,-0.240481 -0.64022,-0.01525 -0.76067,-0.09895 -0.50721,-0.352407 0.25346,-0.25346 0.59588,-0.25346 1.44186,0 0.6102,0.182822 1.60691,0.334364 2.2149,0.336761 0.81854,0.0032 0.99463,0.07596 0.67851,0.280256 -0.28802,0.186135 0.75275,0.277316 3.1989,0.280257 l 3.62582,0.0044 1.49724,1.355056 c 2.40982,2.180972 3.51959,2.935618 4.97094,3.380243 0.97326,0.298162 4.50807,0.535456 12.32241,0.827213 6.02671,0.225014 11.24583,0.476782 11.59804,0.559484 0.63498,0.1491 0.64042,0.194128 0.64474,5.339161 0.003,3.455276 0.0965,5.046163 0.28026,4.761871 0.19692,-0.304712 0.27714,0.01439 0.28026,1.11474 0.005,1.660044 -0.21243,1.756102 -0.56874,0.251622 -0.18757,-0.792031 -0.2728,2.683362 -0.41318,16.848967 l -0.01,0.996151 -2.68841,0.02487 c -1.77014,0.01637 -2.72608,0.13789 -2.79871,0.355768 -0.13518,0.405547 -0.81852,0.435415 -1.05901,0.04629 z"
           id="path46"
           transform="scale(0.26458333)" />
        <path
           style="opacity:0.00573593;fill:#53f890;fill-opacity:1;stroke:#009237;stroke-width:0;stroke-dasharray:none;stroke-opacity:1"
           d="m 446.27558,51.230615 c -16.24839,-0.109051 -21.3494,-0.225626 -21.82684,-0.498816 -0.43307,-0.2478 -0.68153,-0.746427 -0.81482,-1.635253 -0.31702,-2.114091 0.022,-30.919981 0.37385,-31.767397 0.16988,-0.40913 0.54283,-0.84034 0.82876,-0.958245 0.28593,-0.117905 2.41227,-0.280956 4.72519,-0.362336 2.31292,-0.08138 4.26152,-0.238905 4.33021,-0.350055 0.0687,-0.11115 2.08264,-0.141128 4.47543,-0.06662 l 4.35053,0.135473 2.27692,1.917558 c 1.2523,1.054657 2.67708,2.121727 3.16618,2.371268 1.48539,0.757862 4.10336,1.004714 14.053,1.325081 5.24402,0.168852 9.95083,0.38134 10.45958,0.472198 l 0.925,0.165194 0.0337,4.593311 c 0.0186,2.526322 0.0152,4.743749 -0.008,4.927618 -0.0227,0.183868 0.0902,0.415561 0.2509,0.514872 0.16069,0.09931 0.29216,0.308643 0.29216,0.465181 0,0.156538 -0.13393,0.201844 -0.29761,0.10068 -0.20509,-0.126749 -0.27146,2.248844 -0.21347,7.640928 0.0463,4.303676 -0.005,7.769567 -0.11417,7.701979 -0.10908,-0.06759 -0.23716,0.552864 -0.28462,1.378784 l -0.0863,1.501672 -2.54671,0.08306 c -1.40069,0.04568 -2.68146,0.173757 -2.84615,0.284614 -0.16469,0.110858 -9.84113,0.137521 -21.50321,0.05925 z"
           id="path47"
           transform="scale(0.26458333)" />
        <path
           style="opacity:0.00573593;fill:#53f890;fill-opacity:1;stroke:#009237;stroke-width:0;stroke-dasharray:none;stroke-opacity:1"
           d="m 467.00914,51.37706 c -0.076,-0.07599 -9.14548,-0.145404 -20.15441,-0.154244 -21.0733,-0.01692 -22.61607,-0.09919 -23.05686,-1.229566 -0.1888,-0.484149 -0.45314,-13.984673 -0.36587,-18.685652 0.0102,-0.547883 0.0324,-2.981337 0.0493,-5.407676 0.0295,-4.217294 0.37027,-8.978502 0.66362,-9.271856 0.3153,-0.315302 1.71503,-0.477021 5.62297,-0.649654 3.28097,-0.144936 4.10994,-0.26239 4.04412,-0.572991 -0.0587,-0.276855 0.0657,-0.325804 0.42692,-0.168002 0.28035,0.122475 2.33191,0.280432 4.55904,0.351015 l 4.04933,0.128332 1.00305,0.945995 c 4.2677,4.024963 4.9509,4.244626 14.09438,4.53168 12.85656,0.403625 15.28382,0.539248 15.61389,0.872426 0.10022,0.10116 0.18222,5.967947 0.18222,13.037304 0,7.069357 0.0995,13.301644 0.22105,13.849527 0.203,0.914791 0.19282,0.938036 -0.12471,0.284615 -0.33901,-0.697636 -0.34888,-0.688688 -0.50567,0.457925 l -0.1599,1.169461 -2.56153,0.0577 c -1.40884,0.03174 -2.60423,0.177884 -2.6564,0.324768 -0.0999,0.281056 -0.70926,0.364212 -0.94458,0.12889 z"
           id="path48"
           transform="scale(0.26458333)" />
      </g>
      <text
         xml:space="preserve"
         style="font-size:12.2709px;fill:#8d0bd6;fill-opacity:1;stroke-width:0.575201"
         x="5.0655642"
         y="36.078686"
         id="text1"
         transform="scale(1.1712698,0.85377426)"><tspan
           sodipodi:role="line"
           id="tspan1"
           style="font-style:normal;font-variant:normal;font-weight:normal;font-stretch:normal;font-size:12.2709px;font-family:sans-serif;-inkscape-font-specification:sans-serif;fill:#8d0bd6;fill-opacity:1;stroke-width:0.575201"
           x="5.0655642"
           y="36.078686"><tspan
   style="font-style:normal;font-variant:normal;font-weight:normal;font-stretch:normal;font-family:'Droid Sans';-inkscape-font-specification:'Droid Sans'"
   id="tspan4">MVP</tspan> </tspan></text>
      <text
         xml:space="preserve"
         style="font-size:12.2709px;fill:#0cc450;fill-opacity:1;stroke-width:0.575201"
         x="31.777029"
         y="36.20451"
         id="text2"
         transform="scale(1.1712698,0.85377426)"><tspan
           sodipodi:role="line"
           id="tspan2"
           style="font-style:normal;font-variant:normal;font-weight:normal;font-stretch:normal;font-size:12.2709px;font-family:sans-serif;-inkscape-font-specification:sans-serif;fill:#0cc450;fill-opacity:1;stroke-width:0.575201"
           x="31.777029"
           y="36.20451"><tspan
   style="font-style:normal;font-variant:normal;font-weight:normal;font-stretch:normal;font-family:'Droid Sans';-inkscape-font-specification:'Droid Sans'"
   id="tspan3">DEVS</tspan> </tspan></text>
    </g>
  </g>
</svg>
